# xmcd
#
# Track frame offsets: 
#        150
#        42353
#        80284
#        159588
#        197575
#        245359
#
# Disc length: 4074 seconds
#
# Revision: 2
# Processed by: cddbd v1.5.2PL0 Copyright (c) Steve Scherf et al.
# Submitted via: ExactAudioCopy v0.99pb5
#
DISCID=410fe806
DTITLE=Charles Tolliver - Mosaic Select 20 (Disc1)
DYEAR=2005
DGENRE=Jazz
TTITLE0=Drought
TTITLE1=Felicite
TTITLE2=Orientale
TTITLE3=Spanning
TTITLE4=Wilpan's
TTITLE5=Our Second Father
EXTD=YEAR: 2005
EXTT0=
EXTT1=
EXTT2=
EXTT3=
EXTT4=
EXTT5=
PLAYORDER=
